<svg width="365" height="384" viewBox="0 0 365 384" fill="none" xmlns="http://www.w3.org/2000/svg">
<g opacity="0.45">
<path d="M47.6726 369.966C47.6653 369.974 47.6594 369.982 47.6555 369.992C47.6515 370.002 47.6495 370.012 47.6495 370.022C47.6495 370.033 47.6516 370.043 47.6556 370.053C47.6595 370.062 47.6654 370.071 47.6727 370.078C47.6799 370.086 47.6886 370.093 47.6984 370.097C47.7082 370.102 47.7188 370.104 47.7296 370.105C47.7404 370.105 47.7511 370.103 47.7611 370.099C47.7712 370.095 47.7802 370.089 47.7879 370.081C47.8021 370.065 47.8097 370.045 47.8091 370.023C47.8085 370.002 47.7997 369.981 47.7845 369.966C47.7691 369.952 47.7492 369.945 47.7285 369.945C47.7079 369.945 47.688 369.953 47.6726 369.966V369.966Z" fill="#CC1D19"/>
<path d="M366.665 355.598C365.269 356.995 364.318 358.775 363.934 360.712C363.55 362.649 363.748 364.657 364.505 366.481C365.262 368.305 366.542 369.864 368.185 370.96C369.828 372.057 371.759 372.641 373.734 372.64C375.708 372.639 377.639 372.052 379.28 370.954C380.921 369.855 382.2 368.295 382.955 366.47C383.709 364.644 383.905 362.637 383.519 360.7C383.132 358.763 382.179 356.985 380.782 355.589C378.908 353.719 376.369 352.669 373.721 352.671C371.074 352.673 368.536 353.725 366.665 355.598V355.598Z" fill="#CC1D19"/>
<path d="M347.064 377.053C345.849 378.27 345.022 379.821 344.688 381.508C344.354 383.195 344.528 384.943 345.187 386.531C345.847 388.12 346.962 389.477 348.393 390.431C349.824 391.385 351.505 391.894 353.225 391.893C354.945 391.891 356.626 391.38 358.055 390.423C359.484 389.466 360.598 388.107 361.255 386.518C361.911 384.928 362.082 383.18 361.745 381.493C361.408 379.807 360.579 378.258 359.362 377.043C358.554 376.236 357.595 375.595 356.539 375.159C355.484 374.722 354.353 374.498 353.211 374.499C352.069 374.5 350.938 374.726 349.883 375.164C348.828 375.603 347.871 376.245 347.064 377.053V377.053Z" fill="#CC1D19"/>
<path d="M355.572 324.028C354.019 325.583 352.962 327.564 352.534 329.72C352.106 331.875 352.328 334.11 353.17 336.14C354.012 338.17 355.438 339.904 357.266 341.124C359.095 342.344 361.244 342.994 363.441 342.992C365.639 342.99 367.787 342.336 369.613 341.114C371.44 339.891 372.862 338.154 373.701 336.122C374.54 334.091 374.758 331.856 374.326 329.701C373.895 327.546 372.834 325.567 371.278 324.015C369.193 321.935 366.368 320.768 363.423 320.771C360.478 320.773 357.654 321.945 355.572 324.028Z" fill="#CC1D19"/>
<path d="M334.967 346.767C331.858 351.156 332.896 357.233 337.284 360.342C341.673 363.451 347.751 362.413 350.86 358.024C353.968 353.636 352.931 347.558 348.542 344.449C344.153 341.341 338.076 342.378 334.967 346.767Z" fill="#CC1D19"/>
<path d="M315.654 368.132C313.001 371.864 313.875 377.04 317.607 379.694C321.339 382.347 326.515 381.472 329.168 377.741C331.822 374.009 330.947 368.832 327.215 366.179C323.484 363.526 318.307 364.4 315.654 368.132Z" fill="#CC1D19"/>
<path d="M296.012 389.882C294.01 393.139 295.027 397.403 298.284 399.405C301.542 401.407 305.805 400.39 307.808 397.133C309.81 393.876 308.793 389.612 305.536 387.61C302.279 385.607 298.015 386.624 296.012 389.882Z" fill="#CC1D19"/>
<path d="M364.361 274.781C361.175 279.92 362.757 286.668 367.896 289.855C373.034 293.041 379.783 291.458 382.969 286.32C386.155 281.181 384.573 274.433 379.434 271.246C374.296 268.06 367.547 269.643 364.361 274.781Z" fill="#CC1D19"/>
<path d="M345.399 293.355C343.869 294.887 342.828 296.839 342.408 298.962C341.987 301.086 342.206 303.287 343.036 305.287C343.866 307.287 345.271 308.995 347.072 310.197C348.874 311.398 350.991 312.039 353.156 312.037C355.321 312.035 357.437 311.391 359.237 310.187C361.036 308.982 362.438 307.271 363.264 305.27C364.091 303.269 364.306 301.068 363.882 298.944C363.458 296.821 362.414 294.871 360.881 293.342C358.826 291.29 356.041 290.139 353.137 290.142C350.234 290.144 347.45 291.3 345.399 293.355V293.355Z" fill="#CC1D19"/>
<path d="M325.575 314.578C324.179 315.975 323.229 317.755 322.844 319.692C322.46 321.629 322.658 323.637 323.415 325.461C324.172 327.286 325.452 328.844 327.095 329.941C328.738 331.037 330.669 331.622 332.644 331.62C334.619 331.619 336.549 331.032 338.19 329.934C339.832 328.836 341.11 327.275 341.865 325.45C342.619 323.625 342.816 321.617 342.429 319.68C342.042 317.744 341.089 315.965 339.692 314.57C337.818 312.7 335.279 311.65 332.632 311.651C329.984 311.653 327.446 312.706 325.575 314.578V314.578Z" fill="#CC1D19"/>
<path d="M305.92 335.977C304.694 337.205 303.859 338.769 303.522 340.472C303.185 342.174 303.36 343.938 304.026 345.541C304.691 347.144 305.817 348.514 307.261 349.477C308.705 350.44 310.402 350.953 312.137 350.951C313.873 350.95 315.569 350.434 317.011 349.468C318.453 348.503 319.577 347.132 320.239 345.528C320.902 343.924 321.074 342.159 320.734 340.457C320.394 338.755 319.557 337.193 318.329 335.967C317.514 335.152 316.546 334.506 315.481 334.065C314.416 333.625 313.275 333.399 312.122 333.4C310.97 333.401 309.829 333.629 308.764 334.071C307.7 334.513 306.733 335.161 305.92 335.977V335.977Z" fill="#CC1D19"/>
<path d="M286.366 357.5C285.338 358.541 284.64 359.863 284.362 361.3C284.084 362.737 284.238 364.224 284.804 365.573C285.371 366.922 286.324 368.074 287.544 368.882C288.764 369.69 290.196 370.119 291.659 370.114C293.123 370.109 294.552 369.671 295.766 368.854C296.981 368.038 297.926 366.88 298.483 365.527C299.041 364.174 299.184 362.686 298.897 361.251C298.609 359.817 297.903 358.499 296.868 357.465C296.177 356.776 295.357 356.23 294.455 355.858C293.552 355.486 292.585 355.297 291.61 355.3C290.634 355.303 289.668 355.499 288.768 355.877C287.869 356.255 287.052 356.806 286.366 357.5V357.5Z" fill="#CC1D19"/>
<path d="M266.842 378.993C264.485 381.354 264.489 385.178 266.849 387.534C269.209 389.89 273.033 389.887 275.39 387.527C277.746 385.166 277.743 381.343 275.382 378.986C273.022 376.63 269.198 376.633 266.842 378.993Z" fill="#CC1D19"/>
<path d="M356.76 243.161C355.455 244.468 354.567 246.133 354.209 247.944C353.85 249.756 354.036 251.633 354.745 253.339C355.453 255.045 356.651 256.502 358.187 257.527C359.724 258.551 361.53 259.098 363.376 259.096C365.223 259.094 367.028 258.545 368.563 257.518C370.098 256.491 371.293 255.031 371.999 253.324C372.704 251.617 372.887 249.74 372.525 247.929C372.164 246.118 371.273 244.455 369.966 243.15C368.213 241.401 365.837 240.42 363.361 240.422C360.885 240.424 358.511 241.409 356.76 243.161Z" fill="#CC1D19"/>
<path d="M333.86 274.038C335.923 279.005 341.621 281.36 346.588 279.297C351.555 277.235 353.91 271.537 351.847 266.57C349.785 261.603 344.087 259.248 339.12 261.31C334.153 263.373 331.798 269.071 333.86 274.038Z" fill="#CC1D19"/>
<path d="M315.676 284.201C314.358 285.519 313.461 287.199 313.099 289.027C312.736 290.855 312.924 292.75 313.638 294.471C314.352 296.193 315.561 297.664 317.111 298.698C318.662 299.733 320.484 300.284 322.348 300.282C324.212 300.281 326.033 299.726 327.582 298.689C329.131 297.653 330.337 296.18 331.048 294.457C331.76 292.734 331.944 290.839 331.578 289.012C331.212 287.184 330.313 285.506 328.993 284.19C327.225 282.427 324.829 281.437 322.332 281.439C319.835 281.441 317.441 282.435 315.676 284.201V284.201Z" fill="#CC1D19"/>
<path d="M294.57 306.899C292.096 310.91 293.341 316.167 297.352 318.642C301.362 321.116 306.62 319.87 309.094 315.86C311.568 311.849 310.323 306.592 306.312 304.117C302.301 301.643 297.044 302.889 294.57 306.899Z" fill="#CC1D19"/>
<path d="M276.037 326.645C274.991 327.693 274.279 329.027 273.992 330.479C273.704 331.932 273.853 333.437 274.421 334.804C274.989 336.172 275.949 337.34 277.181 338.162C278.413 338.983 279.861 339.421 281.341 339.42C282.822 339.419 284.269 338.978 285.499 338.155C286.73 337.331 287.688 336.161 288.254 334.793C288.819 333.424 288.966 331.919 288.676 330.467C288.386 329.015 287.672 327.682 286.624 326.636C285.219 325.233 283.314 324.446 281.329 324.448C279.343 324.449 277.44 325.24 276.037 326.645V326.645Z" fill="#CC1D19"/>
<path d="M256.379 348.046C255.501 348.926 254.904 350.046 254.663 351.264C254.422 352.483 254.547 353.746 255.024 354.894C255.501 356.041 256.307 357.021 257.341 357.71C258.374 358.4 259.589 358.767 260.832 358.765C262.074 358.764 263.289 358.394 264.321 357.702C265.353 357.01 266.157 356.028 266.631 354.88C267.104 353.731 267.227 352.468 266.983 351.25C266.739 350.031 266.139 348.913 265.259 348.036C264.675 347.453 263.982 346.991 263.22 346.676C262.458 346.362 261.641 346.2 260.817 346.201C259.992 346.202 259.176 346.366 258.414 346.682C257.653 346.999 256.961 347.462 256.379 348.046Z" fill="#CC1D19"/>
<path d="M235.457 373.871C235.927 376.541 238.472 378.324 241.142 377.854C243.812 377.383 245.595 374.838 245.125 372.168C244.655 369.498 242.109 367.715 239.439 368.185C236.77 368.656 234.986 371.201 235.457 373.871Z" fill="#CC1D19"/>
<path d="M368.634 193.489C365.902 196.226 365.906 200.659 368.643 203.392C371.379 206.124 375.813 206.12 378.545 203.383C381.277 200.646 381.274 196.213 378.537 193.481C375.8 190.748 371.366 190.752 368.634 193.489Z" fill="#CC1D19"/>
<path d="M347.551 213.467C346.46 214.56 345.718 215.952 345.418 217.466C345.118 218.981 345.274 220.551 345.866 221.977C346.458 223.403 347.46 224.621 348.744 225.478C350.029 226.335 351.539 226.791 353.083 226.79C354.627 226.789 356.136 226.33 357.419 225.471C358.702 224.612 359.702 223.392 360.292 221.964C360.881 220.537 361.035 218.968 360.732 217.453C360.43 215.939 359.685 214.549 358.592 213.458C357.127 211.995 355.14 211.174 353.07 211.176C350.999 211.178 349.014 212.002 347.551 213.467V213.467Z" fill="#CC1D19"/>
<path d="M325.582 235.197C323.2 239.056 324.399 244.116 328.259 246.497C332.119 248.878 337.178 247.68 339.559 243.82C341.941 239.96 340.742 234.901 336.882 232.519C333.022 230.138 327.963 231.337 325.582 235.197Z" fill="#CC1D19"/>
<path d="M306.192 254.21C302.957 257.45 302.962 262.7 306.202 265.935C309.443 269.17 314.692 269.166 317.928 265.925C321.163 262.685 321.158 257.435 317.918 254.2C314.677 250.965 309.428 250.969 306.192 254.21Z" fill="#CC1D19"/>
<path d="M286.028 275.093C284.937 276.186 284.195 277.578 283.895 279.092C283.595 280.607 283.751 282.177 284.343 283.603C284.935 285.029 285.936 286.247 287.221 287.104C288.506 287.961 290.015 288.417 291.559 288.416C293.104 288.415 294.613 287.956 295.896 287.097C297.179 286.238 298.178 285.018 298.768 283.59C299.358 282.163 299.511 280.594 299.209 279.079C298.906 277.565 298.161 276.175 297.069 275.084C295.603 273.621 293.617 272.8 291.546 272.802C289.476 272.804 287.491 273.628 286.028 275.093V275.093Z" fill="#CC1D19"/>
<path d="M266.083 296.21C263.351 298.946 263.355 303.38 266.092 306.112C268.829 308.844 273.262 308.841 275.994 306.104C278.727 303.367 278.723 298.934 275.986 296.201C273.249 293.469 268.816 293.473 266.083 296.21Z" fill="#CC1D19"/>
<path d="M245.637 318.187C243.69 320.894 244.305 324.668 247.013 326.616C249.72 328.563 253.494 327.948 255.442 325.24C257.39 322.533 256.774 318.759 254.066 316.811C251.359 314.863 247.585 315.479 245.637 318.187Z" fill="#CC1D19"/>
<path d="M226.448 345.615C228.312 347.584 231.418 347.669 233.387 345.806C235.356 343.942 235.441 340.835 233.577 338.866C231.714 336.898 228.607 336.812 226.638 338.676C224.67 340.54 224.584 343.646 226.448 345.615Z" fill="#CC1D19"/>
<path d="M206.512 360.641C205.318 362.301 205.695 364.615 207.356 365.81C209.016 367.004 211.33 366.627 212.525 364.966C213.719 363.306 213.342 360.992 211.681 359.797C210.021 358.603 207.707 358.98 206.512 360.641Z" fill="#CC1D19"/>
<path d="M187.294 381.626C186.957 381.964 186.727 382.394 186.634 382.863C186.542 383.331 186.59 383.817 186.773 384.258C186.956 384.699 187.266 385.076 187.663 385.341C188.061 385.606 188.528 385.747 189.005 385.747C189.483 385.746 189.949 385.604 190.346 385.339C190.743 385.073 191.052 384.696 191.235 384.254C191.417 383.813 191.465 383.327 191.371 382.859C191.277 382.391 191.047 381.961 190.709 381.623C190.256 381.171 189.641 380.917 189.001 380.917C188.361 380.918 187.747 381.173 187.294 381.626V381.626Z" fill="#CC1D19"/>
<path d="M359.481 163.841C358.726 164.596 358.212 165.558 358.004 166.605C357.796 167.652 357.903 168.738 358.311 169.724C358.72 170.71 359.412 171.553 360.3 172.146C361.188 172.739 362.232 173.055 363.299 173.055C364.367 173.054 365.411 172.737 366.298 172.144C367.185 171.55 367.877 170.707 368.285 169.72C368.693 168.733 368.799 167.648 368.59 166.601C368.381 165.554 367.866 164.593 367.11 163.838C366.609 163.337 366.014 162.94 365.36 162.669C364.705 162.398 364.003 162.259 363.295 162.259C362.586 162.259 361.885 162.399 361.23 162.671C360.576 162.942 359.982 163.34 359.481 163.841Z" fill="#CC1D19"/>
<path d="M338.402 183.818C337.535 184.685 336.944 185.791 336.705 186.994C336.466 188.197 336.589 189.444 337.059 190.578C337.528 191.711 338.324 192.679 339.344 193.361C340.364 194.042 341.564 194.405 342.791 194.405C344.017 194.404 345.217 194.04 346.236 193.357C347.256 192.675 348.05 191.706 348.519 190.572C348.988 189.439 349.11 188.191 348.87 186.988C348.629 185.785 348.038 184.68 347.169 183.814C346.594 183.238 345.91 182.781 345.158 182.47C344.405 182.159 343.599 181.998 342.785 181.999C341.971 181.999 341.164 182.16 340.412 182.472C339.66 182.784 338.977 183.241 338.402 183.818V183.818Z" fill="#CC1D19"/>
<path d="M317.554 204.024C316.62 204.959 315.985 206.15 315.728 207.446C315.471 208.743 315.605 210.086 316.111 211.306C316.618 212.527 317.475 213.569 318.575 214.303C319.674 215.036 320.966 215.427 322.288 215.425C323.609 215.424 324.9 215.031 325.998 214.296C327.097 213.561 327.952 212.517 328.457 211.296C328.961 210.075 329.092 208.731 328.834 207.435C328.575 206.14 327.937 204.95 327.002 204.016C326.382 203.396 325.645 202.904 324.834 202.568C324.023 202.233 323.154 202.06 322.276 202.061C321.399 202.062 320.53 202.236 319.72 202.572C318.909 202.909 318.173 203.403 317.554 204.024V204.024Z" fill="#CC1D19"/>
<path d="M296.872 224.395C295.905 225.364 295.247 226.598 294.981 227.942C294.715 229.285 294.853 230.677 295.378 231.941C295.903 233.206 296.791 234.286 297.93 235.046C299.07 235.806 300.408 236.211 301.778 236.21C303.147 236.208 304.485 235.801 305.623 235.04C306.761 234.278 307.647 233.196 308.17 231.931C308.693 230.665 308.829 229.273 308.561 227.93C308.292 226.587 307.632 225.354 306.663 224.387C305.364 223.09 303.602 222.362 301.766 222.363C299.93 222.365 298.17 223.096 296.872 224.395Z" fill="#CC1D19"/>
<path d="M276.469 245.06C275.523 246.007 274.879 247.212 274.618 248.525C274.357 249.837 274.492 251.198 275.004 252.434C275.517 253.67 276.384 254.726 277.497 255.469C278.61 256.212 279.919 256.609 281.257 256.608C282.595 256.607 283.903 256.21 285.015 255.466C286.127 254.722 286.994 253.664 287.505 252.428C288.016 251.191 288.149 249.83 287.887 248.518C287.625 247.206 286.98 246.001 286.033 245.055C284.764 243.788 283.043 243.077 281.25 243.078C279.457 243.079 277.737 243.792 276.469 245.06V245.06Z" fill="#CC1D19"/>
<path d="M256.313 265.937C255.435 266.816 254.838 267.936 254.597 269.154C254.355 270.373 254.481 271.636 254.957 272.783C255.433 273.93 256.239 274.911 257.273 275.6C258.306 276.289 259.521 276.657 260.763 276.656C262.005 276.655 263.22 276.285 264.252 275.594C265.284 274.903 266.088 273.922 266.563 272.773C267.037 271.625 267.161 270.362 266.917 269.144C266.674 267.926 266.075 266.807 265.196 265.93C264.612 265.346 263.919 264.884 263.157 264.568C262.395 264.253 261.578 264.091 260.753 264.092C259.928 264.092 259.111 264.256 258.349 264.572C257.587 264.889 256.895 265.353 256.313 265.937Z" fill="#CC1D19"/>
<path d="M236.372 287.051C235.606 287.817 235.084 288.793 234.873 289.856C234.662 290.918 234.77 292.019 235.185 293.02C235.6 294.021 236.302 294.876 237.203 295.478C238.104 296.079 239.163 296.4 240.246 296.4C241.329 296.399 242.388 296.077 243.289 295.475C244.189 294.873 244.891 294.017 245.304 293.016C245.718 292.015 245.826 290.914 245.614 289.851C245.402 288.789 244.879 287.813 244.113 287.048C243.086 286.023 241.693 285.447 240.242 285.447C238.79 285.448 237.398 286.025 236.372 287.051V287.051Z" fill="#CC1D19"/>
<path d="M216.482 308.22C215.841 308.863 215.404 309.681 215.228 310.572C215.051 311.463 215.143 312.387 215.491 313.225C215.84 314.064 216.429 314.781 217.184 315.285C217.94 315.789 218.828 316.057 219.736 316.057C220.644 316.056 221.532 315.786 222.287 315.281C223.042 314.775 223.629 314.058 223.976 313.218C224.323 312.379 224.413 311.455 224.235 310.565C224.058 309.674 223.619 308.856 222.977 308.215C222.115 307.354 220.946 306.871 219.728 306.872C218.511 306.873 217.343 307.358 216.482 308.22Z" fill="#CC1D19"/>
<path d="M196.776 329.563C196.292 330.048 195.963 330.665 195.83 331.337C195.697 332.008 195.766 332.704 196.029 333.336C196.291 333.969 196.735 334.509 197.305 334.889C197.875 335.269 198.544 335.471 199.229 335.471C199.913 335.47 200.582 335.266 201.151 334.886C201.72 334.505 202.163 333.964 202.425 333.331C202.686 332.698 202.754 332.002 202.62 331.331C202.486 330.659 202.156 330.043 201.671 329.559C201.022 328.911 200.141 328.547 199.223 328.547C198.305 328.548 197.425 328.914 196.776 329.563Z" fill="#CC1D19"/>
<path d="M177.064 350.9C176.739 351.226 176.518 351.641 176.428 352.092C176.339 352.543 176.385 353.011 176.562 353.436C176.738 353.861 177.037 354.224 177.419 354.479C177.802 354.734 178.252 354.87 178.712 354.87C179.172 354.87 179.622 354.733 180.004 354.477C180.387 354.221 180.684 353.857 180.86 353.432C181.036 353.007 181.081 352.539 180.991 352.088C180.901 351.637 180.679 351.223 180.354 350.897C179.917 350.462 179.325 350.217 178.708 350.217C178.091 350.218 177.5 350.464 177.064 350.9Z" fill="#CC1D19"/>
<path d="M157.405 372.298C157.246 372.456 157.138 372.657 157.094 372.876C157.049 373.096 157.071 373.323 157.156 373.53C157.242 373.737 157.386 373.914 157.572 374.039C157.758 374.164 157.977 374.23 158.2 374.231C158.424 374.231 158.643 374.165 158.829 374.04C159.016 373.916 159.161 373.74 159.246 373.533C159.332 373.326 159.354 373.099 159.311 372.879C159.267 372.66 159.159 372.458 159.001 372.3C158.896 372.195 158.772 372.111 158.635 372.054C158.498 371.997 158.352 371.968 158.203 371.967C158.055 371.967 157.908 371.996 157.771 372.053C157.634 372.11 157.51 372.193 157.405 372.298Z" fill="#CC1D19"/>
<path d="M349.151 136.871C349.153 139.004 350.883 140.731 353.016 140.73C355.149 140.728 356.876 138.997 356.874 136.865C356.873 134.732 355.142 133.004 353.009 133.006C350.877 133.008 349.149 134.738 349.151 136.871Z" fill="#CC1D19"/>
<path d="M328.718 154.834C327.285 156.923 327.816 159.778 329.906 161.212C331.995 162.645 334.85 162.113 336.284 160.024C337.717 157.935 337.185 155.079 335.096 153.646C333.007 152.213 330.151 152.744 328.718 154.834Z" fill="#CC1D19"/>
<path d="M308.345 174.32C307.625 175.041 307.135 175.959 306.937 176.959C306.739 177.958 306.842 178.993 307.233 179.934C307.624 180.875 308.284 181.679 309.132 182.244C309.979 182.809 310.975 183.111 311.994 183.11C313.013 183.109 314.008 182.806 314.855 182.239C315.701 181.673 316.361 180.868 316.75 179.926C317.139 178.985 317.24 177.949 317.04 176.95C316.841 175.951 316.349 175.034 315.628 174.314C314.662 173.349 313.351 172.808 311.985 172.809C310.619 172.81 309.31 173.354 308.345 174.32Z" fill="#CC1D19"/>
<path d="M287.671 194.69C286.918 195.445 286.405 196.406 286.198 197.452C285.99 198.498 286.098 199.582 286.507 200.567C286.916 201.552 287.608 202.394 288.495 202.986C289.383 203.577 290.425 203.893 291.492 203.892C292.558 203.891 293.601 203.574 294.487 202.981C295.373 202.387 296.064 201.545 296.471 200.559C296.878 199.573 296.984 198.489 296.775 197.443C296.566 196.397 296.052 195.437 295.297 194.683C294.285 193.673 292.913 193.106 291.483 193.107C290.053 193.108 288.682 193.678 287.671 194.69V194.69Z" fill="#CC1D19"/>
<path d="M267.111 215.197C266.346 215.964 265.826 216.942 265.617 218.005C265.408 219.069 265.519 220.17 265.936 221.171C266.353 222.171 267.058 223.025 267.961 223.624C268.864 224.224 269.925 224.542 271.009 224.538C272.092 224.535 273.151 224.209 274.05 223.604C274.949 222.998 275.648 222.139 276.058 221.136C276.469 220.133 276.572 219.031 276.356 217.969C276.139 216.907 275.613 215.933 274.842 215.17C274.333 214.664 273.729 214.264 273.065 213.991C272.401 213.719 271.689 213.58 270.971 213.582C270.253 213.585 269.543 213.729 268.881 214.006C268.218 214.282 267.617 214.687 267.111 215.197V215.197Z" fill="#CC1D19"/>
<path d="M246.821 235.95C246.102 236.671 245.612 237.589 245.414 238.589C245.216 239.588 245.319 240.623 245.709 241.564C246.1 242.505 246.761 243.309 247.608 243.874C248.456 244.439 249.452 244.74 250.471 244.74C251.489 244.739 252.485 244.436 253.331 243.869C254.178 243.303 254.837 242.498 255.226 241.556C255.615 240.615 255.716 239.579 255.517 238.58C255.317 237.581 254.826 236.664 254.105 235.944C253.138 234.979 251.828 234.438 250.462 234.439C249.096 234.44 247.786 234.984 246.821 235.95Z" fill="#CC1D19"/>
<path d="M226.647 256.835C224.824 258.661 224.826 261.619 226.652 263.441C228.478 265.264 231.436 265.261 233.258 263.436C235.081 261.61 235.079 258.652 233.253 256.83C231.427 255.007 228.469 255.009 226.647 256.835Z" fill="#CC1D19"/>
<path d="M206.64 277.905C206.089 278.457 205.713 279.16 205.562 279.926C205.41 280.691 205.489 281.484 205.788 282.205C206.088 282.926 206.594 283.542 207.243 283.975C207.892 284.408 208.655 284.638 209.435 284.638C210.216 284.637 210.978 284.405 211.627 283.971C212.275 283.537 212.78 282.92 213.078 282.199C213.376 281.478 213.454 280.684 213.301 279.919C213.148 279.154 212.772 278.451 212.22 277.9C211.479 277.161 210.475 276.746 209.429 276.747C208.382 276.748 207.379 277.164 206.64 277.905V277.905Z" fill="#CC1D19"/>
<path d="M186.773 299.063C186.344 299.491 186.052 300.037 185.934 300.631C185.815 301.225 185.876 301.841 186.108 302.401C186.34 302.961 186.733 303.439 187.237 303.775C187.74 304.112 188.333 304.291 188.939 304.291C189.545 304.29 190.137 304.11 190.64 303.773C191.143 303.435 191.535 302.956 191.766 302.396C191.997 301.836 192.057 301.22 191.938 300.626C191.818 300.032 191.525 299.487 191.096 299.059C190.521 298.488 189.744 298.167 188.934 298.168C188.123 298.168 187.346 298.49 186.773 299.063V299.063Z" fill="#CC1D19"/>
<path d="M167.003 320.349C166.721 320.631 166.529 320.99 166.452 321.381C166.375 321.772 166.415 322.177 166.568 322.546C166.721 322.914 166.98 323.228 167.312 323.449C167.644 323.67 168.034 323.787 168.432 323.787C168.831 323.786 169.22 323.667 169.551 323.444C169.882 323.222 170.14 322.907 170.291 322.538C170.443 322.169 170.482 321.764 170.403 321.373C170.324 320.983 170.131 320.624 169.848 320.343C169.662 320.156 169.44 320.007 169.195 319.906C168.951 319.805 168.689 319.753 168.424 319.754C168.16 319.754 167.898 319.807 167.654 319.909C167.41 320.011 167.189 320.161 167.003 320.349Z" fill="#CC1D19"/>
<path d="M147.232 341.632C147.096 341.768 147.004 341.94 146.967 342.128C146.93 342.316 146.95 342.511 147.023 342.688C147.097 342.865 147.221 343.016 147.381 343.122C147.541 343.228 147.728 343.284 147.92 343.283C148.111 343.283 148.298 343.225 148.457 343.118C148.616 343.011 148.74 342.859 148.812 342.682C148.885 342.505 148.903 342.31 148.865 342.122C148.826 341.934 148.733 341.762 148.597 341.627C148.415 341.448 148.169 341.347 147.913 341.348C147.658 341.349 147.412 341.451 147.232 341.632V341.632Z" fill="#CC1D19"/>
<path d="M127.348 362.8C127.333 362.815 127.324 362.835 127.323 362.857C127.323 362.878 127.33 362.899 127.344 362.915C127.352 362.922 127.361 362.928 127.371 362.932C127.381 362.936 127.392 362.938 127.403 362.938C127.414 362.938 127.424 362.935 127.434 362.931C127.444 362.926 127.452 362.919 127.46 362.911C127.474 362.897 127.483 362.876 127.483 362.855C127.483 362.834 127.474 362.814 127.46 362.799C127.444 362.786 127.424 362.778 127.404 362.778C127.383 362.778 127.363 362.786 127.348 362.8V362.8Z" fill="#CC1D19"/>
<path d="M362.207 84.5253C361.642 85.0909 361.643 86.007 362.209 86.5716C362.774 87.1362 363.69 87.1355 364.255 86.5699C364.82 86.0044 364.819 85.0882 364.253 84.5236C363.688 83.959 362.772 83.9598 362.207 84.5253Z" fill="#CC1D19"/>
<path d="M341.125 104.494C340.809 104.809 340.594 105.211 340.506 105.649C340.419 106.087 340.463 106.541 340.634 106.954C340.804 107.366 341.093 107.719 341.464 107.967C341.836 108.215 342.272 108.348 342.719 108.348C343.165 108.348 343.602 108.216 343.973 107.968C344.344 107.72 344.633 107.367 344.804 106.954C344.975 106.542 345.019 106.088 344.932 105.65C344.845 105.212 344.629 104.81 344.313 104.495C343.89 104.072 343.317 103.835 342.719 103.835C342.122 103.835 341.548 104.072 341.125 104.494V104.494Z" fill="#CC1D19"/>
<path d="M320.047 124.472C319.619 124.9 319.328 125.446 319.21 126.04C319.093 126.634 319.154 127.249 319.386 127.808C319.618 128.368 320.011 128.845 320.515 129.181C321.019 129.517 321.611 129.696 322.216 129.696C322.822 129.695 323.413 129.515 323.916 129.179C324.42 128.842 324.812 128.363 325.043 127.804C325.274 127.244 325.334 126.628 325.216 126.035C325.097 125.441 324.805 124.896 324.376 124.468C323.802 123.894 323.023 123.572 322.211 123.573C321.399 123.574 320.621 123.897 320.047 124.472V124.472Z" fill="#CC1D19"/>
<path d="M299.202 144.675C298.707 145.17 298.37 145.801 298.234 146.488C298.098 147.175 298.169 147.887 298.438 148.534C298.706 149.181 299.16 149.733 299.743 150.122C300.326 150.51 301.01 150.717 301.711 150.717C302.411 150.716 303.095 150.508 303.677 150.118C304.259 149.729 304.712 149.175 304.98 148.528C305.247 147.881 305.317 147.169 305.18 146.482C305.042 145.796 304.705 145.165 304.209 144.67C303.88 144.342 303.49 144.081 303.06 143.904C302.63 143.726 302.17 143.635 301.705 143.635C301.24 143.636 300.779 143.728 300.35 143.906C299.921 144.084 299.53 144.346 299.202 144.675V144.675Z" fill="#CC1D19"/>
<path d="M278.402 164.935C277.85 165.487 277.475 166.191 277.324 166.956C277.172 167.721 277.251 168.515 277.55 169.235C277.849 169.956 278.355 170.572 279.005 171.005C279.654 171.438 280.417 171.669 281.197 171.668C281.977 171.667 282.74 171.435 283.388 171.001C284.037 170.567 284.542 169.95 284.84 169.229C285.138 168.508 285.216 167.715 285.063 166.95C284.91 166.184 284.534 165.482 283.981 164.93C283.241 164.191 282.237 163.776 281.19 163.777C280.144 163.778 279.141 164.194 278.402 164.935V164.935Z" fill="#CC1D19"/>
<path d="M257.839 185.421C257.277 185.985 256.894 186.702 256.74 187.483C256.585 188.264 256.665 189.073 256.971 189.808C257.276 190.543 257.792 191.171 258.454 191.613C259.117 192.054 259.895 192.29 260.691 192.289C261.487 192.288 262.265 192.052 262.926 191.609C263.588 191.166 264.103 190.537 264.407 189.802C264.711 189.066 264.79 188.257 264.634 187.476C264.478 186.696 264.094 185.979 263.531 185.416C262.775 184.662 261.751 184.239 260.684 184.24C259.617 184.241 258.593 184.666 257.839 185.421Z" fill="#CC1D19"/>
<path d="M237.378 206.03C236.825 206.582 236.449 207.285 236.297 208.051C236.145 208.816 236.223 209.61 236.521 210.331C236.82 211.052 237.326 211.668 237.975 212.102C238.624 212.535 239.387 212.767 240.167 212.767C240.948 212.766 241.711 212.535 242.36 212.101C243.009 211.667 243.514 211.05 243.812 210.329C244.111 209.608 244.188 208.814 244.036 208.049C243.883 207.283 243.506 206.58 242.954 206.029C242.214 205.29 241.211 204.875 240.165 204.876C239.12 204.876 238.117 205.291 237.378 206.03V206.03Z" fill="#CC1D19"/>
<path d="M216.726 227.258C215.557 228.883 215.926 231.147 217.551 232.316C219.176 233.485 221.441 233.116 222.61 231.491C223.779 229.866 223.409 227.601 221.784 226.432C220.16 225.263 217.895 225.633 216.726 227.258Z" fill="#CC1D19"/>
<path d="M196.988 247.737C196.559 248.165 196.267 248.71 196.149 249.304C196.03 249.898 196.091 250.514 196.322 251.074C196.554 251.633 196.946 252.112 197.45 252.448C197.953 252.785 198.546 252.964 199.151 252.964C199.757 252.964 200.349 252.785 200.852 252.448C201.356 252.111 201.748 251.633 201.98 251.073C202.211 250.514 202.272 249.898 202.153 249.304C202.035 248.71 201.743 248.164 201.314 247.736C200.739 247.165 199.961 246.843 199.151 246.844C198.34 246.844 197.562 247.165 196.988 247.737Z" fill="#CC1D19"/>
<path d="M176.993 268.794C176.082 269.707 176.083 271.186 176.996 272.097C177.909 273.008 179.388 273.007 180.299 272.094C181.21 271.181 181.209 269.703 180.296 268.791C179.383 267.88 177.905 267.881 176.993 268.794Z" fill="#CC1D19"/>
<path d="M157.041 289.891C156.827 290.105 156.682 290.378 156.623 290.675C156.564 290.972 156.595 291.28 156.711 291.559C156.827 291.839 157.023 292.078 157.275 292.246C157.527 292.414 157.823 292.503 158.126 292.503C158.428 292.503 158.724 292.413 158.976 292.245C159.227 292.076 159.423 291.837 159.539 291.557C159.655 291.277 159.685 290.969 159.625 290.673C159.566 290.376 159.42 290.103 159.206 289.889C158.918 289.602 158.529 289.441 158.123 289.442C157.717 289.442 157.328 289.604 157.041 289.891V289.891Z" fill="#CC1D19"/>
<path d="M137.231 311.13C137.153 311.209 137.099 311.309 137.077 311.419C137.056 311.528 137.067 311.641 137.11 311.744C137.152 311.847 137.225 311.935 137.317 311.996C137.41 312.058 137.519 312.091 137.63 312.091C137.741 312.091 137.85 312.058 137.943 311.996C138.035 311.934 138.107 311.846 138.15 311.743C138.192 311.64 138.204 311.527 138.182 311.418C138.16 311.309 138.106 311.208 138.027 311.13C137.922 311.024 137.778 310.965 137.629 310.965C137.48 310.965 137.337 311.025 137.231 311.13Z" fill="#CC1D19"/>
<path d="M352.83 54.6493C352.815 54.6639 352.803 54.6814 352.794 54.7008C352.786 54.7203 352.781 54.7412 352.781 54.7624C352.78 54.7837 352.784 54.8047 352.792 54.8244C352.8 54.8441 352.812 54.8619 352.827 54.8769C352.841 54.8963 352.859 54.9124 352.88 54.9242C352.9 54.936 352.923 54.9432 352.947 54.9451C352.971 54.9471 352.994 54.9439 353.017 54.9357C353.039 54.9276 353.059 54.9146 353.076 54.8978C353.093 54.881 353.106 54.8607 353.114 54.8383C353.122 54.816 353.125 54.7922 353.123 54.7685C353.121 54.7448 353.114 54.7219 353.102 54.7012C353.09 54.6806 353.074 54.6628 353.055 54.6491C353.025 54.6194 352.985 54.6027 352.943 54.6027C352.9 54.6028 352.86 54.6195 352.83 54.6493V54.6493Z" fill="#CC1D19"/>
<path d="M331.921 74.7994C331.802 74.9384 331.741 75.1168 331.748 75.2991C331.756 75.4814 331.832 75.6542 331.961 75.7831C332.09 75.912 332.263 75.9875 332.445 75.9947C332.627 76.0018 332.806 75.94 332.945 75.8217C333.021 75.7566 333.083 75.6765 333.126 75.5864C333.17 75.4962 333.195 75.398 333.199 75.2979C333.203 75.1977 333.186 75.0979 333.149 75.0046C333.113 74.9113 333.057 74.8266 332.986 74.7558C332.915 74.685 332.831 74.6296 332.737 74.5932C332.644 74.5568 332.544 74.5401 332.444 74.5442C332.344 74.5483 332.246 74.5731 332.156 74.617C332.065 74.6609 331.985 74.723 331.921 74.7994Z" fill="#CC1D19"/>
<path d="M310.9 94.8283C310.696 95.0311 310.557 95.2899 310.5 95.5718C310.444 95.8537 310.472 96.146 310.582 96.4117C310.692 96.6774 310.878 96.9045 311.117 97.0642C311.356 97.2239 311.637 97.3091 311.925 97.3088C312.212 97.3086 312.493 97.223 312.732 97.0629C312.971 96.9027 313.157 96.6753 313.266 96.4094C313.376 96.1435 313.403 95.8512 313.346 95.5694C313.289 95.2876 313.15 95.0291 312.946 94.8266C312.674 94.5566 312.306 94.4053 311.922 94.4056C311.539 94.4059 311.171 94.5579 310.9 94.8283V94.8283Z" fill="#CC1D19"/>
<path d="M289.991 114.976C289.709 115.258 289.518 115.617 289.44 116.008C289.363 116.399 289.403 116.804 289.556 117.172C289.71 117.541 289.968 117.855 290.3 118.076C290.632 118.297 291.022 118.414 291.421 118.413C291.819 118.413 292.209 118.294 292.54 118.071C292.871 117.849 293.128 117.534 293.28 117.165C293.431 116.796 293.47 116.391 293.391 116C293.312 115.609 293.119 115.251 292.837 114.97C292.458 114.594 291.946 114.383 291.413 114.384C290.879 114.385 290.368 114.598 289.991 114.976V114.976Z" fill="#CC1D19"/>
<path d="M269.189 135.236C268.851 135.574 268.622 136.005 268.529 136.473C268.436 136.942 268.484 137.427 268.667 137.868C268.851 138.309 269.16 138.686 269.558 138.951C269.955 139.216 270.422 139.357 270.9 139.357C271.377 139.357 271.844 139.215 272.241 138.949C272.638 138.683 272.947 138.306 273.129 137.865C273.312 137.423 273.359 136.938 273.266 136.469C273.172 136.001 272.942 135.571 272.604 135.233C272.15 134.781 271.536 134.527 270.896 134.528C270.255 134.528 269.641 134.783 269.189 135.236V135.236Z" fill="#CC1D19"/>
<path d="M248.573 155.663C248.212 156.024 247.966 156.483 247.866 156.983C247.766 157.484 247.817 158.002 248.012 158.474C248.208 158.945 248.538 159.348 248.963 159.631C249.387 159.914 249.886 160.065 250.396 160.065C250.906 160.065 251.405 159.913 251.829 159.629C252.252 159.345 252.583 158.941 252.777 158.47C252.971 157.998 253.021 157.479 252.921 156.979C252.82 156.479 252.573 156.02 252.212 155.66C251.728 155.179 251.074 154.909 250.392 154.91C249.71 154.91 249.056 155.181 248.573 155.663Z" fill="#CC1D19"/>
<path d="M228.058 176.21C227.698 176.571 227.453 177.031 227.354 177.531C227.255 178.032 227.306 178.55 227.502 179.021C227.698 179.492 228.029 179.894 228.453 180.177C228.878 180.459 229.377 180.61 229.887 180.609C230.397 180.608 230.895 180.456 231.318 180.172C231.742 179.888 232.072 179.484 232.266 179.013C232.46 178.541 232.51 178.022 232.409 177.522C232.308 177.022 232.061 176.564 231.7 176.204C231.461 175.965 231.176 175.776 230.864 175.647C230.551 175.517 230.216 175.451 229.878 175.452C229.539 175.453 229.205 175.52 228.892 175.65C228.58 175.78 228.297 175.971 228.058 176.21Z" fill="#CC1D19"/>
<path d="M207.665 196.862C207.328 197.2 207.098 197.631 207.005 198.099C206.913 198.568 206.961 199.053 207.144 199.494C207.327 199.935 207.637 200.312 208.034 200.577C208.432 200.842 208.899 200.983 209.376 200.983C209.854 200.983 210.321 200.841 210.717 200.575C211.114 200.309 211.423 199.932 211.606 199.491C211.788 199.049 211.836 198.564 211.742 198.095C211.648 197.627 211.418 197.197 211.08 196.859C210.856 196.635 210.589 196.458 210.296 196.337C210.003 196.216 209.689 196.153 209.372 196.154C209.055 196.154 208.741 196.217 208.448 196.338C208.155 196.46 207.889 196.638 207.665 196.862V196.862Z" fill="#CC1D19"/>
<path d="M187.444 217.696C187.162 217.978 186.971 218.338 186.893 218.729C186.816 219.12 186.856 219.525 187.01 219.893C187.163 220.261 187.422 220.576 187.753 220.797C188.085 221.017 188.475 221.135 188.874 221.134C189.272 221.133 189.662 221.014 189.993 220.792C190.324 220.57 190.581 220.254 190.733 219.886C190.885 219.517 190.923 219.112 190.844 218.721C190.766 218.33 190.573 217.972 190.29 217.691C189.911 217.315 189.399 217.104 188.866 217.105C188.332 217.106 187.821 217.319 187.444 217.696V217.696Z" fill="#CC1D19"/>
<path d="M167.314 238.651C167.111 238.854 166.973 239.113 166.918 239.395C166.862 239.677 166.891 239.969 167.001 240.234C167.112 240.499 167.298 240.726 167.538 240.885C167.777 241.044 168.058 241.129 168.345 241.128C168.632 241.127 168.913 241.042 169.152 240.881C169.39 240.721 169.575 240.493 169.685 240.228C169.794 239.962 169.821 239.67 169.764 239.388C169.707 239.107 169.568 238.848 169.364 238.646C169.229 238.511 169.069 238.405 168.893 238.332C168.717 238.26 168.528 238.223 168.338 238.223C168.148 238.223 167.959 238.261 167.784 238.335C167.608 238.408 167.448 238.516 167.314 238.651V238.651Z" fill="#CC1D19"/>
<path d="M147.276 259.632C147.164 259.745 147.087 259.889 147.057 260.045C147.026 260.201 147.042 260.363 147.103 260.51C147.164 260.657 147.267 260.782 147.399 260.871C147.532 260.959 147.688 261.006 147.847 261.006C148.006 261.006 148.162 260.959 148.294 260.87C148.426 260.781 148.529 260.656 148.59 260.509C148.651 260.361 148.667 260.2 148.635 260.043C148.604 259.887 148.527 259.744 148.415 259.632C148.264 259.481 148.059 259.396 147.845 259.396C147.632 259.396 147.427 259.481 147.276 259.632V259.632Z" fill="#CC1D19"/>
<path d="M127.223 280.635C127.194 280.665 127.177 280.705 127.177 280.747C127.177 280.789 127.194 280.83 127.223 280.86C127.253 280.89 127.294 280.907 127.337 280.907C127.379 280.908 127.42 280.892 127.451 280.863C127.482 280.832 127.499 280.79 127.499 280.747C127.499 280.704 127.481 280.662 127.451 280.632C127.42 280.603 127.379 280.587 127.336 280.587C127.294 280.588 127.253 280.605 127.223 280.635V280.635Z" fill="#CC1D19"/>
<path d="M301.578 65.0135C301.563 65.0284 301.555 65.0485 301.555 65.0695C301.555 65.0905 301.563 65.1106 301.578 65.1254C301.593 65.1402 301.613 65.1485 301.634 65.1485C301.655 65.1485 301.675 65.1402 301.69 65.1253C301.705 65.1105 301.713 65.0903 301.713 65.0694C301.713 65.0484 301.705 65.0283 301.69 65.0134C301.675 64.9986 301.655 64.9903 301.634 64.9903C301.613 64.9903 301.593 64.9987 301.578 65.0135V65.0135Z" fill="#CC1D19"/>
<path d="M280.786 85.2695C280.721 85.3346 280.677 85.4176 280.659 85.5078C280.641 85.5981 280.65 85.6916 280.686 85.7766C280.721 85.8616 280.781 85.9342 280.857 85.9853C280.934 86.0363 281.024 86.0635 281.116 86.0635C281.208 86.0634 281.298 86.036 281.374 85.9848C281.451 85.9337 281.51 85.8609 281.545 85.7759C281.581 85.6909 281.59 85.5973 281.572 85.5071C281.554 85.4168 281.509 85.334 281.444 85.2689C281.357 85.1818 281.238 85.1329 281.115 85.133C280.992 85.1331 280.873 85.1822 280.786 85.2695Z" fill="#CC1D19"/>
<path d="M260.046 105.589C259.933 105.701 259.857 105.845 259.826 106.001C259.795 106.157 259.811 106.319 259.872 106.466C259.933 106.613 260.037 106.739 260.169 106.827C260.301 106.915 260.457 106.962 260.616 106.962C260.775 106.962 260.931 106.915 261.063 106.826C261.196 106.738 261.299 106.612 261.359 106.465C261.42 106.317 261.436 106.156 261.405 106C261.374 105.843 261.297 105.7 261.184 105.588C261.11 105.512 261.021 105.453 260.923 105.412C260.826 105.371 260.721 105.35 260.615 105.35C260.509 105.35 260.404 105.372 260.307 105.412C260.209 105.453 260.12 105.513 260.046 105.589Z" fill="#CC1D19"/>
<path d="M239.306 125.908C238.867 126.348 238.867 127.061 239.308 127.5C239.748 127.94 240.46 127.939 240.9 127.499C241.339 127.059 241.339 126.346 240.898 125.907C240.458 125.467 239.746 125.468 239.306 125.908Z" fill="#CC1D19"/>
<path d="M218.737 146.393C218.567 146.561 218.451 146.777 218.404 147.011C218.357 147.246 218.38 147.49 218.471 147.711C218.563 147.933 218.718 148.122 218.916 148.255C219.115 148.389 219.349 148.46 219.589 148.46C219.828 148.46 220.062 148.39 220.261 148.257C220.461 148.124 220.616 147.935 220.708 147.714C220.799 147.492 220.823 147.249 220.776 147.014C220.73 146.779 220.614 146.564 220.445 146.394C220.218 146.169 219.911 146.043 219.591 146.043C219.272 146.042 218.965 146.168 218.737 146.393V146.393Z" fill="#CC1D19"/>
<path d="M198.279 167.005C198.121 167.162 198.014 167.363 197.971 167.581C197.928 167.8 197.95 168.026 198.036 168.232C198.121 168.438 198.266 168.613 198.451 168.737C198.636 168.86 198.854 168.926 199.077 168.926C199.299 168.926 199.517 168.86 199.702 168.736C199.887 168.612 200.031 168.436 200.116 168.23C200.201 168.024 200.223 167.798 200.18 167.58C200.136 167.361 200.029 167.161 199.871 167.003C199.66 166.792 199.373 166.674 199.075 166.674C198.776 166.674 198.49 166.793 198.279 167.005V167.005Z" fill="#CC1D19"/>
<path d="M177.953 187.711C177.83 187.835 177.747 187.993 177.714 188.164C177.681 188.336 177.699 188.513 177.767 188.674C177.834 188.835 177.948 188.973 178.094 189.069C178.239 189.166 178.41 189.217 178.585 189.216C178.76 189.215 178.93 189.163 179.075 189.066C179.22 188.968 179.333 188.83 179.399 188.669C179.466 188.507 179.483 188.33 179.449 188.158C179.414 187.987 179.33 187.83 179.206 187.707C179.124 187.624 179.026 187.559 178.918 187.515C178.811 187.47 178.695 187.448 178.579 187.448C178.462 187.449 178.347 187.472 178.24 187.517C178.132 187.562 178.035 187.628 177.953 187.711Z" fill="#CC1D19"/>
<path d="M157.728 208.535C157.663 208.6 157.618 208.683 157.6 208.773C157.583 208.864 157.592 208.957 157.627 209.042C157.662 209.127 157.722 209.2 157.799 209.251C157.875 209.302 157.965 209.329 158.057 209.329C158.149 209.329 158.239 209.302 158.316 209.25C158.392 209.199 158.452 209.127 158.487 209.042C158.522 208.956 158.531 208.863 158.513 208.773C158.495 208.682 158.451 208.6 158.386 208.535C158.298 208.447 158.18 208.398 158.056 208.399C157.933 208.399 157.815 208.448 157.728 208.535Z" fill="#CC1D19"/>
</g>
</svg>
